<svg xmlns="http://www.w3.org/2000/svg" width="24" height="24" viewBox="0 0 48 48"><path fill="#00BCD4" d="M7 16H15V24H7zM7 24H15V32H7zM15 24H23V32H15zM7 32H15V40H7zM15 32H23V40H15zM23 32H31V40H23zM34 7H41V14H34z"/><path fill="#00BCD4" d="M33.062 20.418H39.817V27.173H33.062z" transform="rotate(163.355 36.44 23.794)"/><path fill="#00BCD4" d="M20.169 9.708H26.768V16.307000000000002H20.169z" transform="scale(-1) rotate(-52.856 -26.171 47.219)"/><g><path fill="#00838F" d="M16,25H6V15h10V25z M8,23h6v-6H8V23z"/><path fill="#00838F" d="M16,33H6V23h10V33z M8,31h6v-6H8V31z"/><path fill="#00838F" d="M24,33H14V23h10V33z M16,31h6v-6h-6V31z"/><path fill="#00838F" d="M16,41H6V31h10V41z M8,39h6v-6H8V39z"/><path fill="#00838F" d="M24,41H14V31h10V41z M16,39h6v-6h-6V39z"/><path fill="#00838F" d="M32 41H22V31h10V41zM24 39h6v-6h-6V39zM42 15h-9V6h9V15zM35 13h5V8h-5V13zM33.5 29.245l-2.51-8.389 8.389-2.509 2.51 8.387L33.5 29.245zM33.48 22.199l1.363 4.556 4.555-1.362-1.363-4.556L33.48 22.199zM24.299 19.03l-6.854-5.192 5.192-6.854 6.854 5.192L24.299 19.03zM20.247 13.451l3.666 2.777 2.776-3.666-3.665-2.777L20.247 13.451z"/></g></svg>